<svg version="1.1" id="Layer_1" xmlns="http://www.w3.org/2000/svg" xmlns:xlink="http://www.w3.org/1999/xlink" x="0px" y="0px"
	 width="100%" viewBox="0 0 948 734" enable-background="new 0 0 948 734" xml:space="preserve">
<path fill="#FFFFFF" opacity="1.000000" stroke="none" 
	d="
M500.000000,735.000000 
	C333.333374,735.000000 167.166763,735.000000 1.000112,735.000000 
	C1.000074,490.333466 1.000074,245.666916 1.000037,1.000276 
	C316.999786,1.000184 632.999573,1.000184 948.999512,1.000092 
	C948.999634,245.666382 948.999634,490.332764 948.999817,734.999573 
	C799.500000,735.000000 650.000000,735.000000 500.000000,735.000000 
M365.731415,534.765320 
	C365.731415,534.765320 365.570129,534.631470 365.127777,534.804443 
	C364.849365,534.993774 364.681732,535.254333 364.605164,535.660583 
	C364.605164,535.660583 364.531067,535.639282 363.963409,535.913879 
	C362.521149,537.453613 361.078888,538.993286 359.648132,540.612427 
	C359.648132,540.612427 359.570007,540.630859 359.127472,540.803040 
	C358.848846,540.991882 358.681091,541.252197 358.728180,541.761780 
	C358.728180,541.761780 358.569183,541.630798 358.126831,541.803284 
	C357.848450,541.992432 357.680939,542.252930 357.604309,542.659424 
	C357.604309,542.659424 357.529816,542.638367 356.961975,542.912659 
	C355.520203,544.452759 354.078430,545.992859 352.647980,547.612488 
	C352.647980,547.612488 352.569885,547.630981 352.127441,547.803223 
	C351.848816,547.992065 351.681061,548.252380 351.728455,548.762756 
	C351.728455,548.762756 351.569183,548.630798 351.126862,548.803406 
	C350.848419,548.992493 350.680908,549.252930 350.604279,549.659485 
	C350.604279,549.659485 350.529846,549.638367 349.962067,549.912720 
	C348.520325,551.453064 347.078583,552.993408 345.648529,554.612915 
	C345.648529,554.612915 345.570526,554.631165 345.127869,554.803284 
	C344.848938,554.992126 344.681122,555.252502 344.729431,555.763855 
	C344.729431,555.763855 344.569550,555.631042 344.127197,555.803528 
	C343.848755,555.992615 343.681183,556.252991 343.604401,556.659424 
	C343.604401,556.659424 343.529907,556.638489 342.962128,556.912903 
	C341.520325,558.453247 340.078552,559.993591 338.649109,561.612976 
	C338.649109,561.612976 338.571167,561.630981 338.128113,561.803223 
	C337.849121,561.992188 337.681213,562.252747 337.732666,562.767944 
	C337.732666,562.767944 337.570099,562.630920 337.127411,562.803650 
	C336.848724,562.992798 336.681091,563.253418 336.604553,563.660034 
	C336.604553,563.660034 336.530426,563.638611 335.962555,563.912903 
	C334.520782,565.453674 333.079041,566.994446 331.650116,568.613708 
	C331.650116,568.613708 331.572449,568.631409 331.129059,568.803650 
	C330.849731,568.992676 330.681671,569.253418 330.737457,569.772339 
	C330.737457,569.772339 330.571411,569.631409 330.128448,569.804138 
	C329.849548,569.993469 329.681763,570.254272 329.608032,570.661682 
	C329.608032,570.661682 329.534485,570.638794 328.926025,570.947327 
	C327.857849,572.100159 326.789642,573.252930 325.303680,574.856567 
	C327.428497,574.856567 328.721588,574.856567 330.940552,574.998779 
	C406.109344,574.998779 481.278137,574.998779 556.446899,574.998779 
	C556.611511,575.472351 556.776123,575.945923 556.940674,576.419556 
	C555.808960,577.714233 554.743042,579.074158 553.534363,580.292542 
	C547.552002,586.323120 541.393860,592.186768 535.589722,598.382996 
	C533.087341,601.054504 530.509827,601.982239 526.887024,601.977295 
	C452.434753,601.875549 377.982239,601.924927 303.529938,601.827026 
	C299.924500,601.822266 297.371674,602.781189 294.802399,605.374390 
	C272.763641,627.618286 250.578644,649.717285 228.443298,671.865540 
	C227.288010,673.021484 226.187210,674.231934 224.622665,675.878357 
	C226.176498,675.878357 227.105225,675.878357 228.759872,676.020264 
	C229.495514,675.976990 230.231171,675.933716 231.724716,676.050476 
	C232.493561,675.997253 233.262405,675.944031 234.950760,676.024109 
	C239.621796,675.979675 244.292816,675.935303 249.722473,676.050781 
	C250.492020,675.997437 251.261551,675.944092 252.955963,676.024109 
	C271.291870,675.979614 289.627808,675.935181 308.798279,676.051270 
	C310.209320,675.997742 311.620331,675.944214 313.956146,676.023987 
	C325.291992,675.979553 336.627869,675.935120 348.767883,676.051147 
	C349.855713,675.997681 350.943542,675.944214 352.956146,676.023987 
	C373.958679,675.979553 394.961182,675.935120 416.722351,676.050476 
	C417.491882,675.997253 418.261444,675.944031 419.890167,676.023315 
	C421.914764,675.979065 423.939362,675.934875 426.647278,676.046204 
	C427.108643,675.994385 427.570007,675.942566 428.956146,676.024048 
	C440.291992,675.979614 451.627869,675.935181 463.819733,676.051270 
	C465.556793,675.997742 467.293854,675.944214 469.870972,676.023315 
	C471.568726,675.979126 473.266449,675.934998 475.647400,676.046265 
	C476.108643,675.994446 476.569916,675.942566 477.955963,676.023987 
	C485.958649,675.979614 493.961334,675.935181 502.647217,676.046204 
	C503.108521,675.994385 503.569794,675.942566 504.890259,676.023132 
	C506.914825,675.978943 508.939392,675.934814 511.859436,676.051392 
	C514.583313,675.997864 517.307251,675.944275 520.955444,676.023865 
	C527.291382,675.979126 533.627319,675.934326 540.714050,676.049622 
	C541.478333,676.011902 542.242615,675.974243 543.505249,676.046692 
	C543.657898,675.971619 543.810608,675.896545 544.590637,675.631653 
	C617.303955,602.946899 689.987427,530.232178 762.816772,457.663788 
	C766.555054,453.938873 766.076111,452.052948 762.624756,448.610046 
	C685.825378,371.998871 609.141418,295.271942 532.426331,218.576248 
	C531.140991,217.291245 529.740906,216.121094 528.135559,214.397507 
	C527.841064,214.173462 527.546631,213.949417 526.929932,213.288910 
	C526.592896,213.297333 526.255920,213.305771 524.995178,213.245743 
	C490.840485,213.237488 456.685822,213.217712 422.531128,213.223282 
	C339.727020,213.236771 256.922943,213.262070 173.600327,213.073151 
	C173.528824,213.482986 173.457306,213.892807 173.699554,214.930573 
	C174.394165,215.500961 175.088776,216.071350 176.023239,217.223679 
	C196.248337,238.105392 216.472641,258.987885 236.698715,279.868652 
	C258.199799,302.065674 279.774811,324.191956 301.127533,346.530792 
	C304.377258,349.930573 307.549805,351.365753 312.312866,351.356995 
	C395.237610,351.204407 478.162720,351.234161 561.087708,351.317566 
	C563.233704,351.319733 566.055786,351.688843 567.421875,353.040039 
	C585.762634,371.180420 603.900269,389.526215 622.006226,408.306793 
	C622.006226,408.306793 621.976624,408.798553 621.052551,408.943573 
	C537.312378,408.948578 453.572235,408.953583 369.510406,409.106873 
	C369.440552,409.201294 369.293274,409.322479 369.314972,409.385223 
	C369.386749,409.592896 369.519470,409.779480 369.986511,410.582916 
	C379.058655,419.504242 388.135406,428.420898 397.201782,437.348114 
	C408.271088,448.247589 419.331604,459.155945 430.763916,470.646545 
	C431.182922,470.781342 431.601898,470.916138 432.937622,471.252960 
	C506.633881,471.267548 580.330139,471.283234 654.026428,471.285492 
	C655.015198,471.285522 656.003967,471.116241 657.484619,471.144562 
	C657.651489,471.120148 657.818359,471.095734 657.996399,471.763428 
	C656.587891,473.362732 655.255127,475.036926 653.758972,476.549500 
	C641.828979,488.610352 629.868042,500.640594 617.429688,512.741333 
	C617.429688,512.741333 616.974304,512.924072 616.329773,512.743591 
	C615.893799,512.811890 615.457886,512.880188 614.092468,512.789246 
	C539.840698,512.777832 465.588959,512.760315 391.337219,512.797668 
	C389.821838,512.798401 388.306824,513.438232 386.734955,513.624878 
	C386.734955,513.624878 386.569946,513.631042 386.127228,513.803833 
	C385.848511,513.993164 385.680939,514.253967 385.604675,514.660461 
	C385.604675,514.660461 385.530853,514.638550 384.962860,514.912598 
	C383.520874,516.452942 382.078888,517.993347 380.648743,519.612976 
	C380.648743,519.612976 380.570770,519.631165 380.127930,519.803589 
	C379.849060,519.992615 379.681244,520.253235 379.733551,520.769409 
	C379.733551,520.769409 379.570282,520.631104 379.127441,520.803772 
	C378.848816,520.993225 378.681244,521.254028 378.605103,521.660645 
	C378.605103,521.660645 378.531281,521.638672 377.963196,521.912659 
	C376.521088,523.453003 375.078949,524.993408 373.648682,526.612915 
	C373.648682,526.612915 373.570648,526.631104 373.127869,526.803345 
	C372.849030,526.992371 372.681213,527.252869 372.732330,527.767517 
	C372.732330,527.767517 372.570068,527.630920 372.127228,527.803711 
	C371.848419,527.993042 371.680817,528.253845 371.604614,528.660522 
	C371.604614,528.660522 371.530792,528.638489 370.962769,528.912476 
	C369.520782,530.452759 368.078796,531.993042 366.648224,533.612671 
	C366.648224,533.612671 366.570190,533.631287 366.127808,533.803833 
	C365.849213,533.992737 365.681488,534.253113 365.731415,534.765320 
z"/>
<path fill="#C83C5E" opacity="1.000000" stroke="none" 
	d="
M419.030975,675.890747 
	C418.261444,675.944031 417.491882,675.997253 416.036865,675.694336 
	C394.821014,675.239075 374.290741,675.132935 353.760315,675.076782 
	C353.184723,675.075195 352.607727,675.607422 352.031372,675.890747 
	C350.943542,675.944214 349.855713,675.997681 348.059631,675.694702 
	C338.298035,675.225464 329.244720,675.046204 320.191406,675.044800 
	C317.804749,675.044434 315.418030,675.593750 313.031372,675.890625 
	C311.620331,675.944214 310.209320,675.997742 308.074829,675.694763 
	C289.487061,675.239136 271.622833,675.132080 253.758408,675.077148 
	C253.183472,675.075378 252.606903,675.607483 252.031097,675.890747 
	C251.261551,675.944092 250.492020,675.997437 249.039124,675.695679 
	C243.580933,675.523926 238.806091,675.707397 234.031250,675.890869 
	C233.262405,675.944031 232.493561,675.997253 231.161911,675.739868 
	C229.744049,675.578918 228.888992,675.728638 228.033936,675.878357 
	C227.105225,675.878357 226.176498,675.878357 224.622665,675.878357 
	C226.187210,674.231934 227.288010,673.021484 228.443298,671.865540 
	C250.578644,649.717285 272.763641,627.618286 294.802399,605.374390 
	C297.371674,602.781189 299.924500,601.822266 303.529938,601.827026 
	C377.982239,601.924927 452.434753,601.875549 526.887024,601.977295 
	C530.509827,601.982239 533.087341,601.054504 535.589722,598.382996 
	C541.393860,592.186768 547.552002,586.323120 553.534363,580.292542 
	C554.743042,579.074158 555.808960,577.714233 556.940674,576.419556 
	C556.776123,575.945923 556.611511,575.472351 556.446899,574.998779 
	C481.278137,574.998779 406.109344,574.998779 330.470581,574.502686 
	C329.845215,572.883972 329.689850,571.761353 329.534485,570.638794 
	C329.534485,570.638794 329.608032,570.661682 329.900177,570.628357 
	C330.318665,570.273804 330.445038,569.952637 330.571411,569.631409 
	C330.571411,569.631409 330.737457,569.772339 330.964966,569.683716 
	C331.319153,569.273926 331.445801,568.952637 331.572449,568.631409 
	C331.572449,568.631409 331.650116,568.613708 332.008667,568.679321 
	C333.754944,567.042847 335.142700,565.340759 336.530457,563.638611 
	C336.530426,563.638611 336.604553,563.660034 336.898254,563.627441 
	C337.317993,563.273560 337.444061,562.952271 337.570099,562.630920 
	C337.570099,562.630920 337.732666,562.767944 337.962341,562.681396 
	C338.318420,562.273560 338.444824,561.952271 338.571167,561.630981 
	C338.571167,561.630981 338.649109,561.612976 339.007812,561.678711 
	C340.754303,560.042480 342.142090,558.340515 343.529907,556.638489 
	C343.529907,556.638489 343.604401,556.659424 343.898071,556.626953 
	C344.317657,556.273315 344.443604,555.952209 344.569550,555.631042 
	C344.569550,555.631042 344.729431,555.763855 344.960602,555.679199 
	C345.318024,555.273376 345.444275,554.952271 345.570557,554.631165 
	C345.570526,554.631165 345.648529,554.612915 346.007568,554.678467 
	C347.754333,553.042114 349.142090,551.340210 350.529846,549.638367 
	C350.529846,549.638367 350.604279,549.659485 350.897949,549.627014 
	C351.317505,549.273315 351.443359,548.952026 351.569214,548.630798 
	C351.569183,548.630798 351.728455,548.762756 351.959961,548.678589 
	C352.317627,548.273254 352.443756,547.952087 352.569885,547.630981 
	C352.569885,547.630981 352.647980,547.612488 353.007202,547.678040 
	C354.754211,546.041870 356.142029,544.340149 357.529816,542.638367 
	C357.529816,542.638367 357.604309,542.659424 357.897980,542.626953 
	C358.317505,542.273193 358.443359,541.952026 358.569183,541.630798 
	C358.569183,541.630798 358.728180,541.761780 358.959839,541.678101 
	C359.317688,541.273193 359.443848,540.952026 359.570007,540.630859 
	C359.570007,540.630859 359.648132,540.612427 360.007172,540.678040 
	C361.754486,539.042175 363.142761,537.340698 364.531067,535.639282 
	C364.531067,535.639282 364.605164,535.660583 364.898590,535.627808 
	C365.318054,535.273865 365.444092,534.952637 365.570129,534.631470 
	C365.570129,534.631470 365.731415,534.765320 365.961609,534.679932 
	C366.317902,534.273499 366.444061,533.952393 366.570190,533.631287 
	C366.570190,533.631287 366.648224,533.612671 367.007385,533.678101 
	C368.754639,532.041870 370.142731,530.340210 371.530792,528.638489 
	C371.530792,528.638489 371.604614,528.660522 371.898315,528.627930 
	C372.318024,528.273804 372.444061,527.952393 372.570068,527.630920 
	C372.570068,527.630920 372.732330,527.767517 372.962097,527.681152 
	C373.318115,527.273560 373.444397,526.952332 373.570648,526.631104 
	C373.570648,526.631104 373.648682,526.612915 374.007629,526.678467 
	C375.754822,525.042175 377.143066,523.340454 378.531281,521.638672 
	C378.531281,521.638672 378.605103,521.660645 378.898682,521.627991 
	C379.318268,521.273926 379.444305,520.952515 379.570312,520.631104 
	C379.570282,520.631104 379.733551,520.769409 379.962738,520.682190 
	C380.318207,520.273682 380.444489,519.952454 380.570770,519.631165 
	C380.570770,519.631165 380.648743,519.612976 381.007690,519.678467 
	C382.754700,518.042236 384.142792,516.340393 385.530884,514.638550 
	C385.530853,514.638550 385.604675,514.660461 385.898346,514.627930 
	C386.317993,514.273865 386.443939,513.952454 386.569946,513.631042 
	C386.569946,513.631042 386.734955,513.624878 387.247009,513.779968 
	C462.130371,513.955994 536.501648,513.982605 610.872925,513.954102 
	C612.256042,513.953552 613.638916,513.298340 615.021912,512.948486 
	C615.457886,512.880188 615.893799,512.811890 616.762573,513.011108 
	C617.435791,513.079102 617.676147,512.879639 617.916504,512.680176 
	C629.868042,500.640594 641.828979,488.610352 653.758972,476.549500 
	C655.255127,475.036926 656.587891,473.362732 657.906372,471.243225 
	C657.541870,470.824005 657.267273,470.924988 656.992737,471.025970 
	C656.003967,471.116241 655.015198,471.285522 654.026428,471.285492 
	C580.330139,471.283234 506.633881,471.267548 432.286530,470.881897 
	C431.222260,470.360718 430.809113,470.210602 430.395935,470.060486 
	C419.331604,459.155945 408.271088,448.247589 397.201782,437.348114 
	C388.135406,428.420898 379.058655,419.504242 369.843445,410.021667 
	C369.744293,409.293152 369.788177,409.125885 369.832092,408.958588 
	C453.572235,408.953583 537.312378,408.948578 621.766357,408.901306 
	C622.349548,408.513031 622.218872,408.167023 622.088257,407.821014 
	C603.900269,389.526215 585.762634,371.180420 567.421875,353.040039 
	C566.055786,351.688843 563.233704,351.319733 561.087708,351.317566 
	C478.162720,351.234161 395.237610,351.204407 312.312866,351.356995 
	C307.549805,351.365753 304.377258,349.930573 301.127533,346.530792 
	C279.774811,324.191956 258.199799,302.065674 236.698715,279.868652 
	C216.472641,258.987885 196.248337,238.105392 176.133377,216.532959 
	C178.334747,215.561691 180.425873,215.036377 182.517212,215.035645 
	C295.311249,214.996063 408.105286,215.001266 520.899353,214.996292 
	C523.397705,214.996170 525.895996,214.931763 528.394348,214.897339 
	C529.740906,216.121094 531.140991,217.291245 532.426331,218.576248 
	C609.141418,295.271942 685.825378,371.998871 762.624756,448.610046 
	C766.076111,452.052948 766.555054,453.938873 762.816772,457.663788 
	C689.987427,530.232178 617.303955,602.946899 544.176514,675.579834 
	C543.510559,675.664185 543.258728,675.800354 543.006897,675.936584 
	C542.242615,675.974243 541.478333,676.011902 540.032471,675.693726 
	C532.910950,675.522095 526.471008,675.706421 520.031128,675.890686 
	C517.307251,675.944275 514.583313,675.997864 511.146667,675.711182 
	C508.299622,675.544189 506.165344,675.717468 504.031097,675.890686 
	C503.569794,675.942566 503.108521,675.994385 501.999390,675.692261 
	C493.244781,675.522400 485.137970,675.706543 477.031158,675.890686 
	C476.569916,675.942566 476.108643,675.994446 475.053711,675.713135 
	C472.650330,675.550232 470.840607,675.720459 469.030914,675.890686 
	C467.293854,675.944214 465.556793,675.997742 463.085541,675.694763 
	C453.298035,675.225464 444.244720,675.046204 435.191406,675.044800 
	C432.804749,675.044434 430.418030,675.593750 428.031372,675.890625 
	C427.570007,675.942566 427.108643,675.994385 426.040588,675.708496 
	C423.299561,675.544128 421.165283,675.717468 419.030975,675.890747 
M557.816711,575.619751 
	C557.619873,575.549866 557.423035,575.479980 557.226257,575.410095 
	C557.287903,575.607666 557.349548,575.805237 557.816711,575.619751 
z"/>
<path fill="#C4254F" opacity="1.000000" stroke="none" 
	d="
M528.264954,214.647430 
	C525.895996,214.931763 523.397705,214.996170 520.899353,214.996292 
	C408.105286,215.001266 295.311249,214.996063 182.517212,215.035645 
	C180.425873,215.036377 178.334747,215.561691 176.013458,216.241989 
	C175.088776,216.071350 174.394165,215.500961 173.773163,214.395142 
	C173.937469,213.667374 174.028168,213.475006 174.118851,213.282623 
	C256.922943,213.262070 339.727020,213.236771 422.531128,213.223282 
	C456.685822,213.217712 490.840485,213.237488 525.632446,213.463409 
	C526.597229,213.695847 526.924683,213.710617 527.252136,213.725388 
	C527.546631,213.949417 527.841064,214.173462 528.264954,214.647430 
z"/>
<path fill="#C4254F" opacity="1.000000" stroke="none" 
	d="
M614.557190,512.868896 
	C613.638916,513.298340 612.256042,513.953552 610.872925,513.954102 
	C536.501648,513.982605 462.130371,513.955994 387.275391,513.857483 
	C388.306824,513.438232 389.821838,512.798401 391.337219,512.797668 
	C465.588959,512.760315 539.840698,512.777832 614.557190,512.868896 
z"/>
<path fill="#C72A57" opacity="1.000000" stroke="none" 
	d="
M352.493774,675.957397 
	C352.607727,675.607422 353.184723,675.075195 353.760315,675.076782 
	C374.290741,675.132935 394.821014,675.239075 415.657532,675.614502 
	C394.961182,675.935120 373.958679,675.979553 352.493774,675.957397 
z"/>
<path fill="#C72A57" opacity="1.000000" stroke="none" 
	d="
M252.493530,675.957397 
	C252.606903,675.607483 253.183472,675.075378 253.758408,675.077148 
	C271.622833,675.132080 289.487061,675.239136 307.657532,675.614502 
	C289.627808,675.935181 271.291870,675.979614 252.493530,675.957397 
z"/>
<path fill="#C72A57" opacity="1.000000" stroke="none" 
	d="
M428.493774,675.957336 
	C430.418030,675.593750 432.804749,675.044434 435.191406,675.044800 
	C444.244720,675.046204 453.298035,675.225464 462.657532,675.614502 
	C451.627869,675.935181 440.291992,675.979614 428.493774,675.957336 
z"/>
<path fill="#C72A57" opacity="1.000000" stroke="none" 
	d="
M313.493774,675.957275 
	C315.418030,675.593750 317.804749,675.044434 320.191406,675.044800 
	C329.244720,675.046204 338.298035,675.225464 347.657532,675.614502 
	C336.627869,675.935120 325.291992,675.979553 313.493774,675.957275 
z"/>
<path fill="#C72A57" opacity="1.000000" stroke="none" 
	d="
M477.493561,675.957336 
	C485.137970,675.706543 493.244781,675.522400 501.657806,675.614502 
	C493.961334,675.935181 485.958649,675.979614 477.493561,675.957336 
z"/>
<path fill="#C72A57" opacity="1.000000" stroke="none" 
	d="
M520.493286,675.957275 
	C526.471008,675.706421 532.910950,675.522095 539.657043,675.613647 
	C533.627319,675.934326 527.291382,675.979126 520.493286,675.957275 
z"/>
<path fill="#C72A57" opacity="1.000000" stroke="none" 
	d="
M234.490997,675.957458 
	C238.806091,675.707397 243.580933,675.523926 248.659821,675.615723 
	C244.292816,675.935303 239.621796,675.979675 234.490997,675.957458 
z"/>
<path fill="#CC486D" opacity="1.000000" stroke="none" 
	d="
M357.245911,542.775513 
	C356.142029,544.340149 354.754211,546.041870 353.001526,547.638306 
	C354.078430,545.992859 355.520203,544.452759 357.245911,542.775513 
z"/>
<path fill="#CC486D" opacity="1.000000" stroke="none" 
	d="
M329.230255,570.793091 
	C329.689850,571.761353 329.845215,572.883972 330.007629,574.431519 
	C328.721588,574.856567 327.428497,574.856567 325.303680,574.856567 
	C326.789642,573.252930 327.857849,572.100159 329.230255,570.793091 
z"/>
<path fill="#CC486D" opacity="1.000000" stroke="none" 
	d="
M336.246521,563.775757 
	C335.142700,565.340759 333.754944,567.042847 332.002258,568.640015 
	C333.079041,566.994446 334.520782,565.453674 336.246521,563.775757 
z"/>
<path fill="#CC486D" opacity="1.000000" stroke="none" 
	d="
M343.246033,556.775696 
	C342.142090,558.340515 340.754303,560.042480 339.001648,561.639221 
	C340.078552,559.993591 341.520325,558.453247 343.246033,556.775696 
z"/>
<path fill="#CC486D" opacity="1.000000" stroke="none" 
	d="
M350.245972,549.775513 
	C349.142090,551.340210 347.754333,553.042114 346.001709,554.638794 
	C347.078583,552.993408 348.520325,551.453064 350.245972,549.775513 
z"/>
<path fill="#CC486D" opacity="1.000000" stroke="none" 
	d="
M364.247223,535.776611 
	C363.142761,537.340698 361.754486,539.042175 360.001404,540.638306 
	C361.078888,538.993286 362.521149,537.453613 364.247223,535.776611 
z"/>
<path fill="#CC486D" opacity="1.000000" stroke="none" 
	d="
M371.246765,528.775513 
	C370.142731,530.340210 368.754639,532.041870 367.001678,533.638428 
	C368.078796,531.993042 369.520782,530.452759 371.246765,528.775513 
z"/>
<path fill="#CC486D" opacity="1.000000" stroke="none" 
	d="
M385.246887,514.775574 
	C384.142792,516.340393 382.754700,518.042236 381.001770,519.638916 
	C382.078888,517.993347 383.520874,516.452942 385.246887,514.775574 
z"/>
<path fill="#CC486D" opacity="1.000000" stroke="none" 
	d="
M378.247253,521.775635 
	C377.143066,523.340454 375.754822,525.042175 374.001709,526.638855 
	C375.078949,524.993408 376.521088,523.453003 378.247253,521.775635 
z"/>
<path fill="#C72A57" opacity="1.000000" stroke="none" 
	d="
M504.460693,675.956909 
	C506.165344,675.717468 508.299622,675.544189 510.698914,675.630798 
	C508.939392,675.934814 506.914825,675.978943 504.460693,675.956909 
z"/>
<path fill="#C72A57" opacity="1.000000" stroke="none" 
	d="
M419.460571,675.957031 
	C421.165283,675.717468 423.299561,675.544128 425.698914,675.630737 
	C423.939362,675.934875 421.914764,675.979065 419.460571,675.957031 
z"/>
<path fill="#C72A57" opacity="1.000000" stroke="none" 
	d="
M469.450928,675.957031 
	C470.840607,675.720459 472.650330,675.550232 474.712097,675.635437 
	C473.266449,675.934998 471.568726,675.979126 469.450928,675.957031 
z"/>
<path fill="#C72A57" opacity="1.000000" stroke="none" 
	d="
M228.396912,675.949341 
	C228.888992,675.728638 229.744049,675.578918 230.782959,675.659790 
	C230.231171,675.933716 229.495514,675.976990 228.396912,675.949341 
z"/>
<path fill="#CC486D" opacity="1.000000" stroke="none" 
	d="
M386.348572,513.717407 
	C386.443939,513.952454 386.317993,514.273865 385.908264,514.590698 
	C385.680939,514.253967 385.848511,513.993164 386.348572,513.717407 
z"/>
<path fill="#CC486D" opacity="1.000000" stroke="none" 
	d="
M331.350769,568.717529 
	C331.445801,568.952637 331.319153,569.273926 330.908691,569.590515 
	C330.681671,569.253418 330.849731,568.992676 331.350769,568.717529 
z"/>
<path fill="#C4254F" opacity="1.000000" stroke="none" 
	d="
M617.673096,512.710754 
	C617.676147,512.879639 617.435791,513.079102 617.084839,513.101318 
	C616.974304,512.924072 617.429688,512.741333 617.673096,512.710754 
z"/>
<path fill="#C4254F" opacity="1.000000" stroke="none" 
	d="
M657.238647,471.085266 
	C657.267273,470.924988 657.541870,470.824005 657.900879,470.897156 
	C657.818359,471.095734 657.651489,471.120148 657.238647,471.085266 
z"/>
<path fill="#C4254F" opacity="1.000000" stroke="none" 
	d="
M430.579926,470.353516 
	C430.809113,470.210602 431.222260,470.360718 431.828156,470.780884 
	C431.601898,470.916138 431.182922,470.781342 430.579926,470.353516 
z"/>
<path fill="#F8ECF0" opacity="1.000000" stroke="none" 
	d="
M369.671265,409.032715 
	C369.788177,409.125885 369.744293,409.293152 369.664612,409.717285 
	C369.519470,409.779480 369.386749,409.592896 369.314972,409.385223 
	C369.293274,409.322479 369.440552,409.201294 369.671265,409.032715 
z"/>
<path fill="#F8ECF0" opacity="1.000000" stroke="none" 
	d="
M622.047241,408.063904 
	C622.218872,408.167023 622.349548,408.513031 622.228394,408.828796 
	C621.976624,408.798553 622.006226,408.306793 622.047241,408.063904 
z"/>
<path fill="#D3768B" opacity="1.000000" stroke="none" 
	d="
M527.091064,213.507141 
	C526.924683,213.710617 526.597229,213.695847 526.094360,213.497650 
	C526.255920,213.305771 526.592896,213.297333 527.091064,213.507141 
z"/>
<path fill="#D3768B" opacity="1.000000" stroke="none" 
	d="
M173.859589,213.177887 
	C174.028168,213.475006 173.937469,213.667374 173.616287,214.081177 
	C173.457306,213.892807 173.528824,213.482986 173.859589,213.177887 
z"/>
<path fill="#C72A57" opacity="1.000000" stroke="none" 
	d="
M543.256104,675.991638 
	C543.258728,675.800354 543.510559,675.664185 543.862793,675.674805 
	C543.810608,675.896545 543.657898,675.971619 543.256104,675.991638 
z"/>
<path fill="#CC486D" opacity="1.000000" stroke="none" 
	d="
M330.349915,569.717773 
	C330.445038,569.952637 330.318665,570.273804 329.908691,570.590820 
	C329.681763,570.254272 329.849548,569.993469 330.349915,569.717773 
z"/>
<path fill="#CC486D" opacity="1.000000" stroke="none" 
	d="
M372.348633,527.717285 
	C372.444061,527.952393 372.318024,528.273804 371.908203,528.590698 
	C371.680817,528.253845 371.848419,527.993042 372.348633,527.717285 
z"/>
<path fill="#CC486D" opacity="1.000000" stroke="none" 
	d="
M337.348755,562.717285 
	C337.444061,562.952271 337.317993,563.273560 336.908203,563.590210 
	C336.681091,563.253418 336.848724,562.992798 337.348755,562.717285 
z"/>
<path fill="#CC486D" opacity="1.000000" stroke="none" 
	d="
M338.349670,561.717102 
	C338.444824,561.952271 338.318420,562.273560 337.908234,562.589905 
	C337.681213,562.252747 337.849121,561.992188 338.349670,561.717102 
z"/>
<path fill="#CC486D" opacity="1.000000" stroke="none" 
	d="
M380.349365,519.717407 
	C380.444489,519.952454 380.318207,520.273682 379.908203,520.590149 
	C379.681244,520.253235 379.849060,519.992615 380.349365,519.717407 
z"/>
<path fill="#CC486D" opacity="1.000000" stroke="none" 
	d="
M344.348389,555.717285 
	C344.443604,555.952209 344.317657,556.273315 343.908142,556.589600 
	C343.681183,556.252991 343.848755,555.992615 344.348389,555.717285 
z"/>
<path fill="#CC486D" opacity="1.000000" stroke="none" 
	d="
M345.349213,554.717224 
	C345.444275,554.952271 345.318024,555.273376 344.908081,555.589478 
	C344.681122,555.252502 344.848938,554.992126 345.349213,554.717224 
z"/>
<path fill="#CC486D" opacity="1.000000" stroke="none" 
	d="
M379.348877,520.717407 
	C379.444305,520.952515 379.318268,521.273926 378.908478,521.590759 
	C378.681244,521.254028 378.848816,520.993225 379.348877,520.717407 
z"/>
<path fill="#CC486D" opacity="1.000000" stroke="none" 
	d="
M351.348022,548.717102 
	C351.443359,548.952026 351.317505,549.273315 350.907990,549.589661 
	C350.680908,549.252930 350.848419,548.992493 351.348022,548.717102 
z"/>
<path fill="#CC486D" opacity="1.000000" stroke="none" 
	d="
M352.348694,547.717102 
	C352.443756,547.952087 352.317627,548.273254 351.907837,548.589233 
	C351.681061,548.252380 351.848816,547.992065 352.348694,547.717102 
z"/>
<path fill="#CC486D" opacity="1.000000" stroke="none" 
	d="
M358.348022,541.717041 
	C358.443359,541.952026 358.317505,542.273193 357.908020,542.589539 
	C357.680939,542.252930 357.848450,541.992432 358.348022,541.717041 
z"/>
<path fill="#CC486D" opacity="1.000000" stroke="none" 
	d="
M359.348724,540.716919 
	C359.443848,540.952026 359.317688,541.273193 358.907898,541.589111 
	C358.681091,541.252197 358.848846,540.991882 359.348724,540.716919 
z"/>
<path fill="#CC486D" opacity="1.000000" stroke="none" 
	d="
M373.349243,526.717224 
	C373.444397,526.952332 373.318115,527.273560 372.908142,527.589844 
	C372.681213,527.252869 372.849030,526.992371 373.349243,526.717224 
z"/>
<path fill="#CC486D" opacity="1.000000" stroke="none" 
	d="
M365.348938,534.717957 
	C365.444092,534.952637 365.318054,535.273865 364.908447,535.590576 
	C364.681732,535.254333 364.849365,534.993774 365.348938,534.717957 
z"/>
<path fill="#CC486D" opacity="1.000000" stroke="none" 
	d="
M366.348999,533.717529 
	C366.444061,533.952393 366.317902,534.273499 365.908203,534.589783 
	C365.681488,534.253113 365.849213,533.992737 366.348999,533.717529 
z"/>
<path fill="#F8ECF0" opacity="1.000000" stroke="none" 
	d="
M557.614014,575.811279 
	C557.349548,575.805237 557.287903,575.607666 557.226196,575.410095 
	C557.423035,575.479980 557.619873,575.549866 557.614014,575.811279 
z"/>
</svg>