<svg width="200" height="80" viewBox="0 0 200 80" fill="none" xmlns="http://www.w3.org/2000/svg">
  <g>
    <!-- Google "G" Logo -->
    <path d="M28 40c0-6.627 5.373-12 12-12 3.059 0 5.842 1.154 7.961 3.039l-3.228 3.228C43.548 33.154 41.875 32.5 40 32.5c-4.136 0-7.5 3.364-7.5 7.5s3.364 7.5 7.5 7.5c3.295 0 6.091-2.123 7.091-5.068H40v-4.432h11.773c.145.773.227 1.568.227 2.386 0 6.895-4.618 11.614-12 11.614-6.627 0-12-5.373-12-12z" fill="#4285F4"/>

    <!-- "Google" Text -->
    <text x="54" y="30" font-family="Arial, sans-serif" font-size="14" font-weight="600" fill="#5F6368">Google</text>

    <!-- Star Rating -->
    <g transform="translate(54, 38)">
      <path d="M9.5 14.25l-5.584 2.936 1.066-6.218L.465 6.564l6.243-.906L9.5 0l2.792 5.658 6.243.906-4.517 4.404 1.066 6.218z" fill="#FBBC04"/>
      <path d="M28.5 14.25l-5.584 2.936 1.066-6.218-4.517-4.404 6.243-.906L28.5 0l2.792 5.658 6.243.906-4.517 4.404 1.066 6.218z" fill="#FBBC04"/>
      <path d="M47.5 14.25l-5.584 2.936 1.066-6.218-4.517-4.404 6.243-.906L47.5 0l2.792 5.658 6.243.906-4.517 4.404 1.066 6.218z" fill="#FBBC04"/>
      <path d="M66.5 14.25l-5.584 2.936 1.066-6.218-4.517-4.404 6.243-.906L66.5 0l2.792 5.658 6.243.906-4.517 4.404 1.066 6.218z" fill="#FBBC04"/>
      <path d="M85.5 14.25l-5.584 2.936 1.066-6.218-4.517-4.404 6.243-.906L85.5 0l2.792 5.658 6.243.906-4.517 4.404 1.066 6.218z" fill="#FBBC04"/>
    </g>

    <!-- "Reviews" Text -->
    <text x="54" y="62" font-family="Arial, sans-serif" font-size="11" fill="#5F6368">5.0 Reviews</text>
  </g>
</svg>
